<svg width="24" height="24" viewBox="0 0 24 24" fill="none" xmlns="http://www.w3.org/2000/svg">
<path d="M9 22H15C20 22 22 20 22 15V9C22 4 20 2 15 2H9C4 2 2 4 2 9V15C2 20 4 22 9 22Z" stroke="currentColor" stroke-width="1.5" stroke-linecap="round" stroke-linejoin="round"/>
<path d="M11.1827 5.78989C11.631 5.40662 12.365 5.40662 12.8197 5.78989L13.8461 6.67342C14.041 6.84232 14.4048 6.97872 14.6646 6.97872H15.7689C16.4575 6.97872 17.0227 7.54383 17.0227 8.23241V9.33678C17.0227 9.59013 17.1591 9.96041 17.328 10.1553L18.2115 11.1816C18.5947 11.6299 18.5947 12.3639 18.2115 12.8187L17.328 13.845C17.1591 14.0399 17.0227 14.4037 17.0227 14.6635V15.7679C17.0227 16.4565 16.4575 17.0216 15.7689 17.0216H14.6646C14.4113 17.0216 14.041 17.158 13.8461 17.3269L12.8197 18.2103C12.3715 18.5936 11.6375 18.5936 11.1827 18.2103L10.1564 17.3269C9.96149 17.158 9.59771 17.0216 9.33787 17.0216H8.21404C7.52546 17.0216 6.96031 16.4565 6.96031 15.7679V14.657C6.96031 14.4037 6.8239 14.0399 6.6615 13.845L5.78453 12.8121C5.40776 12.3639 5.40776 11.6364 5.78453 11.1881L6.6615 10.1553C6.8239 9.96041 6.96031 9.59663 6.96031 9.34329V8.23241C6.96031 7.54383 7.52546 6.97872 8.21404 6.97872H9.33787C9.59121 6.97872 9.96149 6.84232 10.1564 6.67342L11.1827 5.78989Z" stroke="currentColor" stroke-opacity="0.4" stroke-width="1.5" stroke-linecap="round" stroke-linejoin="round"/>
<path d="M10.2148 12.3252L11.1892 13.2996L13.7877 10.7012" stroke="currentColor" stroke-opacity="0.4" stroke-width="1.5" stroke-linecap="round" stroke-linejoin="round"/>
</svg>
