<svg width="24" height="24" viewBox="0 0 24 24" fill="none" xmlns="http://www.w3.org/2000/svg">
<path d="M11.2346 2.31703C11.7247 2.11404 12.2753 2.11404 12.7654 2.31703L18.3057 4.61191C18.7958 4.81489 19.1851 5.20424 19.3881 5.6943L21.683 11.2346C21.886 11.7247 21.886 12.2753 21.683 12.7654L19.3881 18.3057C19.1851 18.7958 18.7958 19.1851 18.3057 19.3881L12.7654 21.683C12.2753 21.886 11.7247 21.886 11.2346 21.683L5.6943 19.3881C5.20424 19.1851 4.81489 18.7958 4.61191 18.3057L2.31703 12.7654C2.11404 12.2753 2.11404 11.7247 2.31703 11.2346L4.61191 5.6943C4.81489 5.20424 5.20424 4.81489 5.6943 4.61191L11.2346 2.31703Z" stroke="currentColor" stroke-width="1.5"/>
<path opacity="0.4" d="M13.7441 5.81499C14.2746 5.81577 14.783 6.02722 15.1575 6.40285L17.607 8.8595C17.9815 9.23512 18.1915 9.74414 18.1907 10.2746L18.1856 13.7437C18.1848 14.2742 17.9734 14.7826 17.5978 15.1571L15.1411 17.6066C14.7655 17.9811 14.2565 18.1911 13.726 18.1903L10.2569 18.1852C9.72643 18.1844 9.21804 17.973 8.84351 17.5973L6.39404 15.1407C6.01951 14.7651 5.80954 14.2561 5.81032 13.7256L5.8154 10.2565C5.81617 9.72603 6.02763 9.21763 6.40325 8.8431L8.85991 6.39363C9.23553 6.0191 9.74455 5.80914 10.275 5.80991L13.7441 5.81499Z" stroke="currentColor" stroke-width="1.5"/>
</svg>
