<svg width="24" height="25" viewBox="0 0 24 25" fill="none" xmlns="http://www.w3.org/2000/svg">
<path opacity="0.4" d="M9.56953 13.0586L6.51953 16.1086" stroke="currentColor" stroke-width="1.5" stroke-miterlimit="10" stroke-linecap="round" stroke-linejoin="round"/>
<path opacity="0.4" d="M6.55078 13.0889L9.60078 16.1389" stroke="currentColor" stroke-width="1.5" stroke-miterlimit="10" stroke-linecap="round" stroke-linejoin="round"/>
<path opacity="0.4" d="M13.5293 14.5986H13.5393" stroke="currentColor" stroke-width="2" stroke-miterlimit="10" stroke-linecap="round" stroke-linejoin="round"/>
<path opacity="0.4" d="M17.4707 14.5986H17.4807" stroke="currentColor" stroke-width="2" stroke-miterlimit="10" stroke-linecap="round" stroke-linejoin="round"/>
<path opacity="0.4" d="M15.5 16.5786V16.5586" stroke="currentColor" stroke-width="2" stroke-miterlimit="10" stroke-linecap="round" stroke-linejoin="round"/>
<path opacity="0.4" d="M15.5 12.6387V12.6187" stroke="currentColor" stroke-width="2" stroke-miterlimit="10" stroke-linecap="round" stroke-linejoin="round"/>
<path d="M9 22.5986H15C20 22.5986 22 20.5986 22 15.5986V13.5986C22 8.59863 20 6.59863 15 6.59863H9C4 6.59863 2 8.59863 2 13.5986V15.5986C2 20.5986 4 22.5986 9 22.5986Z" stroke="currentColor" stroke-width="1.5" stroke-linecap="round" stroke-linejoin="round"/>
<path d="M13.0105 2.59863L13.0005 3.60863C12.9905 4.15863 12.5505 4.59863 12.0005 4.59863H11.9705C11.4205 4.59863 10.9805 5.04863 10.9805 5.59863C10.9805 6.14863 11.4305 6.59863 11.9805 6.59863H12.9805" stroke="currentColor" stroke-width="1.5" stroke-linecap="round" stroke-linejoin="round"/>
</svg>
