<svg width="24" height="24" viewBox="0 0 24 24" fill="none" xmlns="http://www.w3.org/2000/svg">
<path d="M8.16602 21.0103C9.32602 21.6003 10.646 21.9303 12.036 21.9303C13.376 21.9303 14.636 21.6303 15.766 21.0803" stroke="currentColor" stroke-width="1.5" stroke-linecap="round" stroke-linejoin="round"/>
<path d="M3.46484 12.4405C3.72484 9.90053 5.08484 7.69053 7.06484 6.29053" stroke="currentColor" stroke-width="1.5" stroke-linecap="round" stroke-linejoin="round"/>
<path d="M16.9355 6.24023C18.9355 7.63023 20.3155 9.84023 20.5955 12.3902" stroke="currentColor" stroke-width="1.5" stroke-linecap="round" stroke-linejoin="round"/>
<path opacity="0.4" d="M12.5303 2.505L13.0599 3.57423C13.1299 3.72412 13.3297 3.86402 13.4896 3.894L14.4589 4.05388C15.0785 4.15381 15.2184 4.60348 14.7787 5.04317L14.0292 5.79263C13.8993 5.92253 13.8294 6.16236 13.8693 6.34223L14.0792 7.27156C14.2491 8.01103 13.8594 8.29082 13.2098 7.9111L12.3005 7.37149C12.1406 7.27156 11.8708 7.27156 11.7009 7.37149L10.7916 7.9111C10.142 8.29082 9.75232 8.01103 9.9222 7.27156L10.132 6.34223C10.172 6.16236 10.1021 5.92253 9.97216 5.79263L9.2227 5.04317C8.78302 4.60348 8.92292 4.15381 9.54247 4.05388L10.5118 3.894C10.6717 3.86402 10.8615 3.72412 10.9415 3.57423L11.4711 2.505C11.7709 1.92542 12.2405 1.92542 12.5303 2.505Z" stroke="currentColor" stroke-width="1.0949" stroke-linecap="round" stroke-linejoin="round"/>
<path opacity="0.4" d="M4.56156 15.0406L5.09118 16.1099C5.16113 16.2598 5.36099 16.3997 5.52087 16.4296L6.49017 16.5895C7.10972 16.6895 7.24963 17.1391 6.80994 17.5788L6.06048 18.3283C5.93058 18.4582 5.86063 18.698 5.9006 18.8779L6.11045 19.8072C6.28032 20.5467 5.8906 20.8265 5.24107 20.4467L4.33173 19.9071C4.17184 19.8072 3.90204 19.8072 3.73216 19.9071L2.82282 20.4467C2.17329 20.8265 1.78357 20.5467 1.95345 19.8072L2.16329 18.8779C2.20327 18.698 2.13332 18.4582 2.00341 18.3283L1.25395 17.5788C0.814268 17.1391 0.954167 16.6895 1.57372 16.5895L2.54302 16.4296C2.70291 16.3997 2.89277 16.2598 2.97271 16.1099L3.50233 15.0406C3.80211 14.4611 4.27177 14.4611 4.56156 15.0406Z" stroke="currentColor" stroke-width="1.0949" stroke-linecap="round" stroke-linejoin="round"/>
<path opacity="0.4" d="M20.4991 15.0406L21.0287 16.1099C21.0986 16.2598 21.2985 16.3997 21.4584 16.4296L22.4277 16.5895C23.0472 16.6895 23.1871 17.1391 22.7474 17.5788L21.998 18.3283C21.8681 18.4582 21.7981 18.698 21.8381 18.8779L22.0479 19.8072C22.2178 20.5467 21.8281 20.8265 21.1786 20.4467L20.2692 19.9071C20.1093 19.8072 19.8395 19.8072 19.6697 19.9071L18.7603 20.4467C18.1108 20.8265 17.7211 20.5467 17.8909 19.8072L18.1008 18.8779C18.1408 18.698 18.0708 18.4582 17.9409 18.3283L17.1915 17.5788C16.7518 17.1391 16.8917 16.6895 17.5112 16.5895L18.4805 16.4296C18.6404 16.3997 18.8303 16.2598 18.9102 16.1099L19.4398 15.0406C19.7396 14.4611 20.2093 14.4611 20.4991 15.0406Z" stroke="currentColor" stroke-width="1.0949" stroke-linecap="round" stroke-linejoin="round"/>
</svg>
