<svg width="24" height="24" viewBox="0 0 24 24" fill="none" xmlns="http://www.w3.org/2000/svg">
<path d="M20.7948 11.7775C20.7948 7.59792 17.6601 4.1647 13.6191 3.66357" stroke="currentColor" stroke-width="1.5" stroke-linecap="round" stroke-linejoin="round"/>
<path d="M10.4215 3.66357C6.35915 4.14337 3.20312 7.58726 3.20312 11.7775" stroke="currentColor" stroke-width="1.5" stroke-linecap="round" stroke-linejoin="round"/>
<path d="M21.3082 14.9761H20.242C19.6556 14.9761 19.1758 14.4963 19.1758 13.9099V12.8436C19.1758 12.2572 19.6556 11.7773 20.242 11.7773H21.3082C21.8947 11.7773 22.3745 12.2572 22.3745 12.8436V13.9099C22.3745 14.4963 21.8947 14.9761 21.3082 14.9761Z" stroke="currentColor" stroke-width="1.5" stroke-linecap="round" stroke-linejoin="round"/>
<path d="M2.69122 14.9761H3.75745C4.34387 14.9761 4.82367 14.4963 4.82367 13.9099V12.8436C4.82367 12.2572 4.34387 11.7773 3.75745 11.7773H2.69122C2.1048 11.7773 1.625 12.2572 1.625 12.8436V13.9099C1.625 14.4963 2.1048 14.9761 2.69122 14.9761Z" stroke="currentColor" stroke-width="1.5" stroke-linecap="round" stroke-linejoin="round"/>
<path d="M12.5543 5.19867H11.4881C10.9017 5.19867 10.4219 4.71887 10.4219 4.13245V3.06622C10.4219 2.4798 10.9017 2 11.4881 2H12.5543C13.1407 2 13.6205 2.4798 13.6205 3.06622V4.13245C13.6205 4.71887 13.1407 5.19867 12.5543 5.19867Z" stroke="currentColor" stroke-width="1.5" stroke-linecap="round" stroke-linejoin="round"/>
<path opacity="0.4" d="M9.99369 22.0002V17.6812C8.41687 16.9248 7.32812 15.3133 7.32812 13.4476C7.32812 11.5818 8.41687 9.97036 9.99369 9.21387V12.5959L10.8453 13.4476H13.197L14.0486 12.5959V9.21387C15.6254 9.97036 16.7142 11.5818 16.7142 13.4476C16.7142 15.3133 15.6254 16.9248 14.0486 17.6812V22.0002" stroke="currentColor" stroke-width="1.5" stroke-linecap="round" stroke-linejoin="round"/>
</svg>
