<svg width="24" height="24" viewBox="0 0 24 24" fill="none" xmlns="http://www.w3.org/2000/svg">
<path d="M9 22H15C20 22 22 20 22 15V9C22 4 20 2 15 2H9C4 2 2 4 2 9V15C2 20 4 22 9 22Z" stroke="currentColor" stroke-width="1.5" stroke-linecap="round" stroke-linejoin="round"/>
<path d="M11.1823 5.78989C11.6305 5.40662 12.3645 5.40662 12.8192 5.78989L13.8456 6.67342C14.0405 6.84232 14.4043 6.97872 14.6641 6.97872H15.7685C16.457 6.97872 17.0222 7.54383 17.0222 8.23241V9.33678C17.0222 9.59013 17.1586 9.96041 17.3275 10.1553L18.211 11.1816C18.5942 11.6299 18.5942 12.3639 18.211 12.8187L17.3275 13.845C17.1586 14.0399 17.0222 14.4037 17.0222 14.6635V15.7679C17.0222 16.4565 16.457 17.0216 15.7685 17.0216H14.6641C14.4108 17.0216 14.0405 17.158 13.8456 17.3269L12.8192 18.2103C12.371 18.5936 11.637 18.5936 11.1823 18.2103L10.1559 17.3269C9.961 17.158 9.59722 17.0216 9.33738 17.0216H8.21356C7.52498 17.0216 6.95982 16.4565 6.95982 15.7679V14.657C6.95982 14.4037 6.82341 14.0399 6.66101 13.845L5.78404 12.8121C5.40727 12.3639 5.40727 11.6364 5.78404 11.1881L6.66101 10.1553C6.82341 9.96041 6.95982 9.59663 6.95982 9.34329V8.23241C6.95982 7.54383 7.52498 6.97872 8.21356 6.97872H9.33738C9.59072 6.97872 9.961 6.84232 10.1559 6.67342L11.1823 5.78989Z" stroke="currentColor" stroke-width="1.5" stroke-linecap="round" stroke-linejoin="round"/>
<path d="M10.2136 12.3249L11.188 13.2993L13.7864 10.7009" stroke="currentColor" stroke-width="1.5" stroke-linecap="round" stroke-linejoin="round"/>
</svg>
