<svg width="24" height="24" viewBox="0 0 24 24" fill="none" xmlns="http://www.w3.org/2000/svg">
<path d="M11.2346 2.31703C11.7247 2.11404 12.2753 2.11404 12.7654 2.31703L18.3057 4.61191C18.7958 4.81489 19.1851 5.20424 19.3881 5.6943L21.683 11.2346C21.886 11.7247 21.886 12.2753 21.683 12.7654L19.3881 18.3057C19.1851 18.7958 18.7958 19.1851 18.3057 19.3881L12.7654 21.683C12.2753 21.886 11.7247 21.886 11.2346 21.683L5.6943 19.3881C5.20424 19.1851 4.81489 18.7958 4.61191 18.3057L2.31703 12.7654C2.11404 12.2753 2.11404 11.7247 2.31703 11.2346L4.61191 5.6943C4.81489 5.20424 5.20424 4.81489 5.6943 4.61191L11.2346 2.31703Z" stroke="currentColor" stroke-width="1.5"/>
<path d="M13.7434 5.81499C14.2738 5.81577 14.7822 6.02722 15.1568 6.40285L17.6062 8.8595C17.9808 9.23512 18.1907 9.74414 18.19 10.2746L18.1849 13.7437C18.1841 14.2742 17.9726 14.7826 17.597 15.1571L15.1404 17.6066C14.7647 17.9811 14.2557 18.1911 13.7253 18.1903L10.2561 18.1852C9.7257 18.1844 9.2173 17.973 8.84278 17.5973L6.3933 15.1407C6.01878 14.7651 5.80881 14.2561 5.80959 13.7256L5.81466 10.2565C5.81544 9.72603 6.0269 9.21763 6.40252 8.8431L8.85918 6.39363C9.2348 6.0191 9.74381 5.80914 10.2742 5.80991L13.7434 5.81499Z" stroke="currentColor" stroke-width="1.5"/>
</svg>
