<svg width="24" height="24" viewBox="0 0 24 24" fill="none" xmlns="http://www.w3.org/2000/svg">
<path d="M9 22H15C20 22 22 20 22 15V9C22 4 20 2 15 2H9C4 2 2 4 2 9V15C2 20 4 22 9 22Z" stroke="currentColor" stroke-width="1.5" stroke-linecap="round" stroke-linejoin="round"/>
<path d="M6.69995 9.26001L11.9999 12.33L17.2599 9.28001" stroke="currentColor" stroke-width="1.5" stroke-linecap="round" stroke-linejoin="round"/>
<path d="M12 17.7701V12.3201" stroke="currentColor" stroke-width="1.5" stroke-linecap="round" stroke-linejoin="round"/>
<path d="M10.76 6.2901L7.56 8.0701C6.84 8.4701 6.23999 9.4801 6.23999 10.3101V13.7001C6.23999 14.5301 6.83 15.5401 7.56 15.9401L10.76 17.7201C11.44 18.1001 12.56 18.1001 13.25 17.7201L16.45 15.9401C17.17 15.5401 17.77 14.5301 17.77 13.7001V10.3001C17.77 9.4701 17.18 8.4601 16.45 8.0601L13.25 6.2801C12.56 5.9001 11.44 5.9001 10.76 6.2901Z" stroke="currentColor" stroke-width="1.5" stroke-linecap="round" stroke-linejoin="round"/>
</svg>
