<svg width="24" height="24" viewBox="0 0 24 24" fill="none" xmlns="http://www.w3.org/2000/svg">
<path d="M20.7963 11.7773C20.7963 7.59768 17.6616 4.16446 13.6206 3.66333" stroke="currentColor" stroke-width="1.5" stroke-linecap="round" stroke-linejoin="round"/>
<path d="M10.422 3.66333C6.35964 4.14313 3.20361 7.58702 3.20361 11.7773" stroke="currentColor" stroke-width="1.5" stroke-linecap="round" stroke-linejoin="round"/>
<path d="M21.308 14.9758H20.2418C19.6553 14.9758 19.1755 14.496 19.1755 13.9096V12.8434C19.1755 12.257 19.6553 11.7771 20.2418 11.7771H21.308C21.8944 11.7771 22.3742 12.257 22.3742 12.8434V13.9096C22.3742 14.496 21.8944 14.9758 21.308 14.9758Z" stroke="currentColor" stroke-width="1.5" stroke-linecap="round" stroke-linejoin="round"/>
<path d="M2.69171 14.9758H3.75794C4.34436 14.9758 4.82416 14.496 4.82416 13.9096V12.8434C4.82416 12.257 4.34436 11.7771 3.75794 11.7771H2.69171C2.10529 11.7771 1.62549 12.257 1.62549 12.8434V13.9096C1.62549 14.496 2.10529 14.9758 2.69171 14.9758Z" stroke="currentColor" stroke-width="1.5" stroke-linecap="round" stroke-linejoin="round"/>
<path d="M12.5543 5.19867H11.4881C10.9017 5.19867 10.4219 4.71887 10.4219 4.13245V3.06622C10.4219 2.4798 10.9017 2 11.4881 2H12.5543C13.1407 2 13.6205 2.4798 13.6205 3.06622V4.13245C13.6205 4.71887 13.1407 5.19867 12.5543 5.19867Z" stroke="currentColor" stroke-width="1.5" stroke-linecap="round" stroke-linejoin="round"/>
<path d="M9.99369 22V17.681C8.41687 16.9245 7.32812 15.3131 7.32812 13.4473C7.32812 11.5816 8.41687 9.97011 9.99369 9.21362V12.5957L10.8453 13.4473H13.197L14.0486 12.5957V9.21362C15.6254 9.97011 16.7142 11.5816 16.7142 13.4473C16.7142 15.3131 15.6254 16.9245 14.0486 17.681V22" stroke="currentColor" stroke-width="1.5" stroke-linecap="round" stroke-linejoin="round"/>
</svg>
