<svg width="24" height="24" viewBox="0 0 24 24" fill="none" xmlns="http://www.w3.org/2000/svg">
<path d="M10.7413 2.44006C11.4313 1.85006 12.5613 1.85006 13.2613 2.44006L14.8413 3.80017C15.1413 4.06017 15.7013 4.27014 16.1013 4.27014H17.8013C18.8613 4.27014 19.7313 5.14007 19.7313 6.20007V7.90014C19.7313 8.29014 19.9413 8.86015 20.2013 9.16015L21.5613 10.7401C22.1513 11.4301 22.1513 12.5601 21.5613 13.2601L20.2013 14.8401C19.9413 15.1401 19.7313 15.7001 19.7313 16.1001V17.8002C19.7313 18.8602 18.8613 19.7301 17.8013 19.7301H16.1013C15.7113 19.7301 15.1413 19.9401 14.8413 20.2001L13.2613 21.5601C12.5713 22.1501 11.4413 22.1501 10.7413 21.5601L9.16135 20.2001C8.86135 19.9401 8.30134 19.7301 7.90134 19.7301H6.17133C5.11133 19.7301 4.24134 18.8602 4.24134 17.8002V16.0901C4.24134 15.7001 4.03134 15.1401 3.78134 14.8401L2.43134 13.2501C1.85134 12.5601 1.85134 11.4401 2.43134 10.7501L3.78134 9.16015C4.03134 8.86015 4.24134 8.30015 4.24134 7.91015V6.20007C4.24134 5.14007 5.11133 4.27014 6.17133 4.27014H7.90134C8.29134 4.27014 8.86135 4.06017 9.16135 3.80017L10.7413 2.44006Z" stroke="currentColor" stroke-width="1.5" stroke-linecap="round" stroke-linejoin="round"/>
<path d="M9.25 12.5L10.75 14L14.75 10" stroke="currentColor" stroke-width="1.5" stroke-linecap="round" stroke-linejoin="round"/>
</svg>
