<svg width="24" height="25" viewBox="0 0 24 25" fill="none" xmlns="http://www.w3.org/2000/svg">
<path d="M9.57002 13.0588L6.52002 16.1088" stroke="currentColor" stroke-width="1.5" stroke-miterlimit="10" stroke-linecap="round" stroke-linejoin="round"/>
<path d="M6.55005 13.0889L9.60005 16.1389" stroke="currentColor" stroke-width="1.5" stroke-miterlimit="10" stroke-linecap="round" stroke-linejoin="round"/>
<path d="M13.53 14.5989H13.54" stroke="currentColor" stroke-width="2" stroke-miterlimit="10" stroke-linecap="round" stroke-linejoin="round"/>
<path d="M17.47 14.5989H17.48" stroke="currentColor" stroke-width="2" stroke-miterlimit="10" stroke-linecap="round" stroke-linejoin="round"/>
<path d="M15.5 16.5788V16.5588" stroke="currentColor" stroke-width="2" stroke-miterlimit="10" stroke-linecap="round" stroke-linejoin="round"/>
<path d="M15.5 12.6389V12.6189" stroke="currentColor" stroke-width="2" stroke-miterlimit="10" stroke-linecap="round" stroke-linejoin="round"/>
<path d="M9 22.5989H15C20 22.5989 22 20.5989 22 15.5989V13.5989C22 8.59888 20 6.59888 15 6.59888H9C4 6.59888 2 8.59888 2 13.5989V15.5989C2 20.5989 4 22.5989 9 22.5989Z" stroke="currentColor" stroke-width="1.5" stroke-linecap="round" stroke-linejoin="round"/>
<path d="M13.01 2.59888L13 3.60888C12.99 4.15888 12.55 4.59888 12 4.59888H11.97C11.42 4.59888 10.98 5.04888 10.98 5.59888C10.98 6.14888 11.43 6.59888 11.98 6.59888H12.98" stroke="currentColor" stroke-width="1.5" stroke-linecap="round" stroke-linejoin="round"/>
</svg>
