<svg width="24" height="24" viewBox="0 0 24 24" fill="none" xmlns="http://www.w3.org/2000/svg">
<path d="M9 22H15C20 22 22 20 22 15V9C22 4 20 2 15 2H9C4 2 2 4 2 9V15C2 20 4 22 9 22Z" stroke="currentColor" stroke-width="1.5" stroke-linecap="round" stroke-linejoin="round"/>
<path d="M9.08827 12.9876L9.08179 17.7843C9.08179 18.3692 9.49126 18.6552 9.99823 18.4147L11.7401 17.5893C11.8831 17.5178 12.1236 17.5178 12.2666 17.5893L14.0149 18.4147C14.5154 18.6487 14.9314 18.3692 14.9314 17.7843V12.8706" stroke="currentColor" stroke-width="1.5" stroke-linecap="round" stroke-linejoin="round"/>
<path d="M12 13.9494C14.423 13.9494 16.3872 12.058 16.3872 9.72471C16.3872 7.39147 14.423 5.5 12 5.5C9.57701 5.5 7.61279 7.39147 7.61279 9.72471C7.61279 12.058 9.57701 13.9494 12 13.9494Z" stroke="currentColor" stroke-width="1.5" stroke-linecap="round" stroke-linejoin="round"/>
</svg>
