<svg
  width="24"
  height="24"
  viewBox="0 0 24 24"
  fill="none"
  xmlns="http://www.w3.org/2000/svg"
>
<path
    d="M21.3886 7.95784L17.3709 5.19971C17.309 5.15045 17.2293 5.11105 17.1497 5.0815C17.0789 5.05195 16.955 5.0224 16.8842 5.01255L16.7426 5.0027C16.6364 5.0027 16.4771 5.03225 16.3798 5.07165L16.2913 5.11105C16.2382 5.1406 16.1851 5.17016 16.1408 5.19971L12.0435 8.01695C12.0169 8.03665 11.9904 8.03665 11.9727 8.01695L7.86648 5.19971C7.48595 4.93374 7.00807 4.93374 6.62754 5.19971L2.60984 7.95784C2.57444 7.98739 2.53019 8.01695 2.49479 8.0465C2.3886 8.1253 2.25586 8.29276 2.19391 8.42082L2.13196 8.52917C2.06117 8.65723 2.02577 8.80498 2.00807 8.95274L1.99922 9.199V14.7547C1.99922 15.2768 2.23816 15.7594 2.61869 16.0254L6.62754 18.7934C6.70718 18.8525 6.80453 18.8919 6.91072 18.9411C6.93727 18.951 6.96382 18.9608 6.99037 18.9608L7.22931 18.9904C7.25586 18.9904 7.2824 19.0002 7.30895 19.0002C7.37975 19.0002 7.45055 18.9904 7.52134 18.9608L7.69833 18.8919C7.76028 18.8623 7.81338 18.8328 7.86648 18.7934L11.9638 15.9761C11.9904 15.9564 12.0169 15.9564 12.0346 15.9761L16.132 18.7934C16.1939 18.8328 16.2647 18.8722 16.3355 18.9116C16.4063 18.9411 16.5213 18.9707 16.5921 18.9805L16.7337 19.0002C16.893 19.0002 17.0523 18.9608 17.2028 18.8919C17.2559 18.8623 17.309 18.8328 17.3621 18.8032L21.3797 16.0352C21.4063 16.0155 21.4328 15.9958 21.4594 15.9761L21.6452 15.7791L21.7691 15.6117C21.8311 15.523 21.8842 15.4245 21.9107 15.3063L21.9727 15.06C21.9904 14.9615 21.9992 14.863 21.9992 14.7645V9.22855C21.9992 8.70648 21.7691 8.22381 21.3886 7.95784ZM17.2293 13.1983C17.2293 13.1589 17.247 13.1293 17.2736 13.1096C17.2824 13.0998 17.3001 13.0998 17.309 13.0998C17.3178 13.0998 17.3355 13.0998 17.3444 13.1096L20.3709 15.2176C20.3974 15.2373 20.4063 15.2669 20.4063 15.2965C20.4063 15.3359 20.3886 15.3654 20.3709 15.3753L17.3444 17.4537C17.3178 17.4734 17.3001 17.4734 17.2736 17.4537C17.247 17.434 17.2293 17.4045 17.2293 17.3651V13.1983ZM21.0258 9.22855V14.1833C21.0258 14.2227 21.0081 14.2523 20.9815 14.272C20.955 14.2819 20.9284 14.2819 20.9107 14.272L19.2028 13.0801C18.5567 12.627 17.9107 12.1738 17.2647 11.7306C17.2382 11.7109 17.2293 11.6813 17.2293 11.6518V6.59848C17.2293 6.55907 17.247 6.52952 17.2736 6.50982C17.2824 6.49997 17.3001 6.49997 17.309 6.49997C17.3178 6.49997 17.3355 6.49997 17.3444 6.50982L20.893 8.95274C20.9815 9.01184 21.0258 9.1202 21.0258 9.22855ZM11.0346 15.2768L7.83993 17.4734C7.81338 17.4931 7.79568 17.4931 7.76913 17.4734C7.74258 17.4537 7.72488 17.4242 7.72488 17.3848V13.149C7.72488 13.1096 7.74258 13.0801 7.76913 13.0604C7.77798 13.0505 7.79568 13.0505 7.80453 13.0505C7.81338 13.0505 7.83108 13.0505 7.83993 13.0604L11.0346 15.2768ZM13.0966 15.1979L16.1497 13.1096C16.1585 13.0998 16.1762 13.0998 16.1851 13.0998C16.1939 13.0998 16.2116 13.0998 16.2205 13.1096C16.247 13.1293 16.2647 13.1589 16.2647 13.1983V17.3946C16.2647 17.434 16.247 17.4636 16.2205 17.4833C16.1939 17.4931 16.1674 17.4931 16.1497 17.4833L13.0966 15.3851C13.07 15.3654 13.0612 15.3359 13.0612 15.3063C13.0523 15.2472 13.07 15.2176 13.0966 15.1979ZM16.2559 10.8539C16.2559 10.8933 16.2382 10.9228 16.2116 10.9425C16.1851 10.9524 16.1585 10.9524 16.1408 10.9425L13.0789 8.80498C13.0523 8.78528 13.0435 8.75573 13.0435 8.72618C13.0435 8.68678 13.0612 8.65723 13.0789 8.64738L16.1408 6.53937C16.1497 6.52952 16.1674 6.52952 16.1762 6.52952C16.1851 6.52952 16.2028 6.52952 16.2116 6.53937C16.2382 6.55907 16.2559 6.58863 16.2559 6.62803V10.8539ZM7.37975 6.19461L11.7514 9.199C12.1054 9.45512 12.4682 9.70138 12.8311 9.95749L15.6629 11.9374C15.6895 11.9571 15.6983 11.9867 15.6983 12.0162C15.6983 12.0556 15.6806 12.0852 15.6629 12.095L12.0435 14.5774C12.0169 14.5971 11.9904 14.5971 11.9727 14.5774L3.60099 8.78528C3.57444 8.76558 3.56559 8.73603 3.56559 8.70648C3.56559 8.67693 3.58329 8.63753 3.60099 8.62768L7.11426 6.20446C7.19391 6.14535 7.3001 6.14535 7.37975 6.19461ZM6.75143 12.361V17.3749C6.75143 17.4143 6.73373 17.4439 6.70718 17.4636C6.68063 17.4734 6.65409 17.4734 6.63639 17.4636L3.09656 15.0305C3.01692 14.9714 2.96382 14.8729 2.96382 14.7547V9.84914C2.96382 9.80973 2.98152 9.78018 3.00807 9.76048C3.03462 9.75063 3.06117 9.75063 3.07886 9.76048L6.70718 12.2822C6.74258 12.3019 6.75143 12.3315 6.75143 12.361Z"
    fill="currentColor"
  />
<path
    fill-rule="evenodd"
    clip-rule="evenodd"
    d="M7.96673 5.05627L12.008 7.82896L16.0436 5.05417C16.0938 5.02064 16.1521 4.98821 16.2028 4.96L16.213 4.95435L16.3141 4.90934C16.4335 4.86098 16.6153 4.8277 16.7426 4.8277H16.7548L16.9083 4.83881C16.9882 4.84992 17.125 4.88224 17.2137 4.91859C17.3004 4.95101 17.395 4.99661 17.4746 5.05865L21.4889 7.8144C21.9232 8.11797 22.1742 8.65837 22.1742 9.22855V14.7645C22.1742 14.8736 22.1644 14.9824 22.1449 15.091L22.1428 15.1028L22.081 15.3469C22.0476 15.4935 21.9822 15.6123 21.9126 15.7119L21.9099 15.7158L21.7797 15.8916L21.5761 16.1075L21.4791 16.1794L17.4545 18.9521L17.2759 19.0515C17.1062 19.1292 16.9219 19.1752 16.7337 19.1752H16.7216L16.568 19.1539C16.4842 19.1422 16.3544 19.1091 16.2681 19.0731L16.259 19.0693L16.2478 19.0631C16.1788 19.0247 16.1043 18.9832 16.038 18.941L16.0327 18.9377L11.9992 16.1642L7.96811 18.9359C7.90394 18.9832 7.84096 19.0177 7.77368 19.0498L7.76203 19.0554L7.58668 19.1232C7.49001 19.1632 7.39581 19.1752 7.30895 19.1752C7.27894 19.1752 7.25144 19.1701 7.23949 19.1678L7.23721 19.1674C7.2308 19.1662 7.22588 19.1654 7.22588 19.1654H7.21853L6.97681 19.1355C6.92295 19.1328 6.87568 19.1149 6.85441 19.1069L6.84985 19.1052L6.83686 19.1004C6.82161 19.0933 6.80585 19.0856 6.78932 19.0781C6.70527 19.0401 6.60764 18.9959 6.52583 18.9358L2.51926 16.1694C2.08659 15.867 1.82422 15.3271 1.82422 14.7547V9.19271L1.83344 8.93917L1.83431 8.93193C1.85344 8.77222 1.89294 8.59982 1.97881 8.4445L1.98002 8.44231L2.03918 8.33887C2.11188 8.19152 2.25718 8.00652 2.38645 7.909C2.40695 7.89212 2.42868 7.876 2.44633 7.8629L2.44803 7.86164C2.46883 7.8462 2.48454 7.83448 2.49769 7.8235L2.50401 7.81823L6.52729 5.05627C6.96771 4.74881 7.5263 4.74883 7.96673 5.05627ZM7.76622 5.34315C7.4459 5.11926 7.04811 5.11926 6.72779 5.34315L6.72658 5.34399L2.71522 8.09777C2.6956 8.11377 2.67511 8.12897 2.65831 8.14144L2.6566 8.1427C2.6358 8.15814 2.62009 8.16986 2.60694 8.18084L2.59925 8.18726C2.51881 8.24695 2.40288 8.3907 2.35144 8.49702L2.34619 8.50788L2.28455 8.61487C2.23014 8.71372 2.19913 8.83394 2.18269 8.96649L2.17422 9.20215V14.7547C2.17422 15.2262 2.39038 15.6521 2.71857 15.8817L6.73188 18.6528C6.78148 18.6896 6.8389 18.7159 6.92259 18.754C6.93977 18.7619 6.95804 18.7702 6.97758 18.7792L6.98813 18.7831C6.99198 18.7844 6.99659 18.7858 6.99659 18.7858H7.00115L7.24275 18.8157C7.2673 18.8169 7.28863 18.8209 7.29876 18.8228L7.30105 18.8232C7.30737 18.8244 7.31232 18.8252 7.31232 18.8252C7.36501 18.8249 7.41066 18.8174 7.45393 18.7993L7.4578 18.7977L7.62864 18.7312C7.68157 18.7057 7.72249 18.6823 7.76219 18.6528L7.76726 18.6491L11.8627 15.8333C11.8969 15.8087 11.9447 15.7864 12.0025 15.7864C12.0567 15.7864 12.1062 15.8061 12.1447 15.8395L16.2285 18.6473C16.2822 18.6814 16.3441 18.716 16.4112 18.7534C16.4678 18.7756 16.5613 18.7996 16.6163 18.8072L16.7452 18.8252C16.8701 18.8233 16.9984 18.7922 17.1238 18.7355L17.2697 18.6544L21.2779 15.8929L21.3427 15.8448L21.5108 15.6666L21.627 15.5096C21.6802 15.433 21.7202 15.3561 21.74 15.268L21.741 15.2636L21.8014 15.0233C21.8167 14.9368 21.8242 14.8506 21.8242 14.7645V9.22855C21.8242 8.75489 21.6153 8.33018 21.289 8.10171L17.2617 5.33703C17.2194 5.3034 17.1586 5.27148 17.0888 5.24557L17.0822 5.24313C17.0307 5.22162 16.9271 5.19589 16.8656 5.18668L16.737 5.17773C16.6526 5.1788 16.522 5.20351 16.4479 5.23286L16.3696 5.26775C16.3182 5.29634 16.2744 5.32099 16.239 5.3446L12.1446 8.15981C12.1104 8.18443 12.0625 8.20672 12.0047 8.20672C11.9507 8.20672 11.9012 8.18697 11.8627 8.15371L7.76622 5.34315ZM7.28522 6.34198C7.26316 6.32967 7.23642 6.33173 7.21855 6.34499L7.21368 6.3486L3.79481 8.70658L12.0083 14.3892L15.4693 12.0156L12.7308 10.1009C12.5948 10.0049 12.4568 9.9089 12.3193 9.81328C12.0948 9.65714 11.8701 9.50081 11.6506 9.34203L7.28522 6.34198ZM7.01276 6.06188C7.15314 5.95951 7.33591 5.96174 7.47179 6.04577L7.47898 6.05021L11.854 9.05718C12.0722 9.21505 12.2919 9.36791 12.5145 9.52267C12.6524 9.61857 12.7913 9.71522 12.9317 9.81429L15.7673 11.7968C15.8535 11.8608 15.8733 11.9534 15.8733 12.0162C15.8733 12.0944 15.8405 12.1906 15.7576 12.2423L12.1445 14.7203C12.1102 14.7449 12.0625 14.7671 12.0047 14.7671C11.9505 14.7671 11.9008 14.7473 11.8623 14.7138L3.49665 8.92589C3.41044 8.86193 3.39059 8.76934 3.39059 8.70648C3.39059 8.66111 3.40297 8.61925 3.41702 8.58798C3.42451 8.5713 3.43458 8.55291 3.4479 8.53511C3.45858 8.52084 3.47713 8.49914 3.50523 8.48114L7.01276 6.06188ZM17.4043 6.76355L20.7938 9.09689L20.7958 9.09827C20.8234 9.11668 20.8508 9.16212 20.8508 9.22855V14.0168L19.3032 12.9368C18.671 12.4934 18.0375 12.049 17.4043 11.6141V6.76355ZM17.309 6.32497C17.3123 6.32497 17.334 6.32459 17.3586 6.32914C17.3766 6.33248 17.4153 6.34171 17.4521 6.37155L20.9902 8.80721L20.9914 8.80801C21.14 8.90792 21.2008 9.07868 21.2008 9.22855V14.1833C21.2008 14.2824 21.1533 14.3624 21.0858 14.4125L21.0658 14.4274L21.0424 14.4361C20.9878 14.4563 20.9037 14.4684 20.8256 14.4249L20.8179 14.4206L19.1026 13.2236C18.4565 12.7704 17.8108 12.3176 17.1657 11.8749L17.1603 11.8712C17.0741 11.8072 17.0543 11.7146 17.0543 11.6518V6.59848C17.0543 6.5042 17.0973 6.42714 17.1597 6.37673C17.1982 6.34276 17.2403 6.33267 17.2593 6.32914C17.2825 6.32484 17.3039 6.32495 17.309 6.32497ZM16.0809 6.79311V10.6873L13.2724 8.72663L16.0809 6.79311ZM16.1762 6.35452C16.1813 6.3545 16.2027 6.35439 16.2258 6.35869C16.2449 6.36222 16.2869 6.37231 16.3255 6.40628C16.3879 6.45669 16.4309 6.53375 16.4309 6.62803V10.8539C16.4309 10.9529 16.3834 11.033 16.3159 11.0831L16.2959 11.0979L16.2725 11.1066C16.2179 11.1269 16.1338 11.1389 16.0557 11.0955L16.0479 11.0911L12.9745 8.94558C12.8883 8.88161 12.8685 8.78904 12.8685 8.72618C12.8685 8.64811 12.9012 8.55195 12.984 8.50023L16.033 6.4011C16.0698 6.37126 16.1086 6.36204 16.1266 6.35869C16.1497 6.35439 16.1712 6.3545 16.1762 6.35452ZM3.13882 10.0153L6.57643 12.4044V17.21L3.19884 14.8884C3.16571 14.8629 3.13882 14.8176 3.13882 14.7547V10.0153ZM2.94719 9.59641C3.00182 9.57614 3.08589 9.56411 3.16397 9.60757L3.17158 9.61181L6.80157 12.1347C6.84404 12.1605 6.87793 12.1964 6.89973 12.2409C6.92187 12.2861 6.92643 12.3296 6.92643 12.361V17.3749C6.92643 17.4739 6.87898 17.554 6.81147 17.6041L6.79144 17.619L6.76806 17.6276C6.71343 17.6479 6.62936 17.6599 6.55128 17.6165L6.54407 17.6125L2.99221 15.1711C2.86696 15.0782 2.78882 14.9269 2.78882 14.7547V9.84914C2.78882 9.75009 2.83627 9.67005 2.90378 9.61995L2.92381 9.60509L2.94719 9.59641ZM7.89988 13.315L10.7267 15.2761L7.89988 17.2198V13.315ZM7.80453 12.8755C7.80957 12.8755 7.831 12.8754 7.85415 12.8797C7.87225 12.8831 7.91115 12.8923 7.94806 12.9224L11.3426 15.2774L7.94122 17.6161C7.91521 17.635 7.86823 17.6632 7.80453 17.6632C7.7383 17.6632 7.69015 17.6327 7.66484 17.6139C7.59733 17.5638 7.54988 17.4838 7.54988 17.3848V13.149C7.54988 13.0548 7.59287 12.9777 7.65523 12.9273C7.69379 12.8933 7.73586 12.8832 7.7549 12.8797C7.77806 12.8754 7.79948 12.8755 7.80453 12.8755ZM16.0897 13.3627V17.2297L13.2696 15.2916L16.0897 13.3627ZM16.1851 12.9248C16.1901 12.9248 16.2115 12.9247 16.2347 12.929C16.2537 12.9325 16.2958 12.9426 16.3344 12.9766C16.3967 13.027 16.4397 13.104 16.4397 13.1983V17.3946C16.4397 17.4936 16.3923 17.5737 16.3247 17.6238L16.3047 17.6387L16.2813 17.6473C16.2267 17.6676 16.1426 17.6796 16.0646 17.6362L16.0573 17.6322L12.9922 15.5257C12.9122 15.4664 12.8894 15.3823 12.8865 15.3203C12.8809 15.2736 12.8834 15.2235 12.9023 15.1745C12.9235 15.1193 12.9591 15.0821 12.9923 15.0574L12.9977 15.0534L16.0422 12.9711C16.0789 12.9415 16.1175 12.9323 16.1354 12.929C16.1586 12.9247 16.18 12.9248 16.1851 12.9248ZM17.4043 13.3647L20.1772 15.296L17.4043 17.2002V13.3647ZM17.309 12.9248C17.314 12.9248 17.3354 12.9247 17.3586 12.929C17.3767 12.9323 17.4157 12.9416 17.4527 12.9718L20.4752 15.0771C20.5614 15.141 20.5813 15.2336 20.5813 15.2965C20.5813 15.3746 20.5485 15.4708 20.4657 15.5225L17.4456 17.5965C17.4196 17.6153 17.3726 17.6435 17.309 17.6435C17.2427 17.6435 17.1946 17.613 17.1693 17.5942C17.1018 17.5441 17.0543 17.4641 17.0543 17.3651V13.1983C17.0543 13.104 17.0973 13.027 17.1597 12.9766C17.1982 12.9426 17.2403 12.9325 17.2593 12.929C17.2825 12.9247 17.3039 12.9248 17.309 12.9248Z"
    fill="currentColor"
  />
</svg>
