<svg width="24" height="24" viewBox="0 0 24 24" fill="none" xmlns="http://www.w3.org/2000/svg">
<path d="M8.16479 21.01C9.32479 21.6 10.6448 21.93 12.0348 21.93C13.3748 21.93 14.6348 21.63 15.7648 21.08" stroke="currentColor" stroke-width="1.5" stroke-linecap="round" stroke-linejoin="round"/>
<path d="M3.46484 12.4403C3.72484 9.90028 5.08484 7.69028 7.06484 6.29028" stroke="currentColor" stroke-width="1.5" stroke-linecap="round" stroke-linejoin="round"/>
<path d="M16.9348 6.23999C18.9348 7.62999 20.3148 9.83999 20.5948 12.39" stroke="currentColor" stroke-width="1.5" stroke-linecap="round" stroke-linejoin="round"/>
<path d="M12.5296 2.50475L13.0592 3.57398C13.1291 3.72388 13.329 3.86377 13.4889 3.89375L14.4582 4.05364C15.0777 4.15357 15.2176 4.60324 14.778 5.04292L14.0285 5.79238C13.8986 5.92229 13.8286 6.16212 13.8686 6.34199L14.0785 7.27132C14.2483 8.01078 13.8586 8.29058 13.2091 7.91085L12.2997 7.37124C12.1399 7.27132 11.8701 7.27132 11.7002 7.37124L10.7908 7.91085C10.1413 8.29058 9.75159 8.01078 9.92146 7.27132L10.1313 6.34199C10.1713 6.16212 10.1013 5.92229 9.97143 5.79238L9.22197 5.04292C8.78229 4.60324 8.92218 4.15357 9.54174 4.05364L10.511 3.89375C10.6709 3.86377 10.8608 3.72388 10.9407 3.57398L11.4703 2.50475C11.7701 1.92517 12.2398 1.92517 12.5296 2.50475Z" stroke="currentColor" stroke-width="1.0949" stroke-linecap="round" stroke-linejoin="round"/>
<path d="M4.56059 15.0404L5.0902 16.1096C5.16015 16.2595 5.36001 16.3994 5.5199 16.4294L6.48919 16.5893C7.10875 16.6892 7.24865 17.1389 6.80897 17.5786L6.05951 18.328C5.9296 18.4579 5.85965 18.6978 5.89962 18.8776L6.10947 19.807C6.27935 20.5464 5.88963 20.8262 5.2401 20.4465L4.33075 19.9069C4.17087 19.807 3.90106 19.807 3.73119 19.9069L2.82184 20.4465C2.17231 20.8262 1.78259 20.5464 1.95247 19.807L2.16232 18.8776C2.20229 18.6978 2.13234 18.4579 2.00243 18.328L1.25297 17.5786C0.813292 17.1389 0.953191 16.6892 1.57274 16.5893L2.54204 16.4294C2.70193 16.3994 2.89179 16.2595 2.97173 16.1096L3.50135 15.0404C3.80114 14.4608 4.2708 14.4608 4.56059 15.0404Z" stroke="currentColor" stroke-width="1.0949" stroke-linecap="round" stroke-linejoin="round"/>
<path d="M20.4983 15.0404L21.0279 16.1096C21.0979 16.2595 21.2978 16.3994 21.4576 16.4294L22.4269 16.5893C23.0465 16.6892 23.1864 17.1389 22.7467 17.5786L21.9973 18.328C21.8673 18.4579 21.7974 18.6978 21.8374 18.8776L22.0472 19.807C22.2171 20.5464 21.8274 20.8262 21.1778 20.4465L20.2685 19.9069C20.1086 19.807 19.8388 19.807 19.6689 19.9069L18.7596 20.4465C18.1101 20.8262 17.7203 20.5464 17.8902 19.807L18.1001 18.8776C18.14 18.6978 18.0701 18.4579 17.9402 18.328L17.1907 17.5786C16.751 17.1389 16.8909 16.6892 17.5105 16.5893L18.4798 16.4294C18.6397 16.3994 18.8295 16.2595 18.9095 16.1096L19.4391 15.0404C19.7389 14.4608 20.2085 14.4608 20.4983 15.0404Z" stroke="currentColor" stroke-width="1.0949" stroke-linecap="round" stroke-linejoin="round"/>
</svg>
