<svg width="24" height="25" viewBox="0 0 24 25" fill="none" xmlns="http://www.w3.org/2000/svg">
<path opacity="0.4" d="M10.4974 2.95436L10.4964 2.95517L8.91645 4.31528L8.91551 4.3161C8.80995 4.40758 8.63625 4.50539 8.43424 4.58045C8.23218 4.65552 8.03783 4.69445 7.90109 4.69445H6.17108C4.90399 4.69445 3.86609 5.73226 3.86609 6.99938V8.70947C3.86609 8.84595 3.82728 9.03781 3.75317 9.23804C3.67951 9.43701 3.58357 9.6103 3.49403 9.71818L2.14523 11.3067L2.14404 11.3081C1.44678 12.1376 1.44678 13.4612 2.14403 14.2907L2.14524 14.2921L3.49399 15.8806C3.58355 15.9885 3.6795 16.1618 3.75317 16.3608C3.82728 16.5611 3.86609 16.7529 3.86609 16.8894V18.5995C3.86609 19.8666 4.90399 20.9044 6.17108 20.9044H7.90109C8.04334 20.9044 8.2377 20.9436 8.43736 21.0182C8.63705 21.0928 8.809 21.1905 8.9155 21.2828L8.91647 21.2836L10.4965 22.6436L10.4964 22.6436L10.4994 22.6461C11.338 23.3529 12.6735 23.3552 13.5048 22.6444L13.5057 22.6436L15.0857 21.2836L15.0867 21.2828C15.1923 21.1913 15.3659 21.0935 15.5679 21.0184C15.77 20.9433 15.9643 20.9044 16.1011 20.9044H17.8011C19.0682 20.9044 20.1061 19.8666 20.1061 18.5995V16.8994C20.1061 16.7572 20.1453 16.5628 20.2199 16.3632C20.2945 16.1635 20.3922 15.9915 20.4845 15.885L20.4853 15.884L21.8453 14.3041L21.8453 14.3041L21.8478 14.3011C22.5547 13.4625 22.5569 12.127 21.8461 11.2957L21.8453 11.2948L20.4853 9.71482L20.4845 9.71387C20.393 9.6083 20.2952 9.43461 20.2201 9.2326C20.145 9.03053 20.1061 8.83619 20.1061 8.69946V6.99938C20.1061 5.73226 19.0682 4.69445 17.8011 4.69445H16.1011C15.9588 4.69445 15.7645 4.65527 15.5648 4.58068C15.3652 4.50608 15.1932 4.4084 15.0867 4.3161L15.0857 4.31528L13.5057 2.95517L13.5057 2.95516L13.5028 2.95264C12.6641 2.24581 11.3287 2.24352 10.4974 2.95436Z" fill="currentColor" stroke="currentColor" stroke-width="0.75" stroke-linecap="round" stroke-linejoin="round"/>
<path d="M9.25 13.2993L10.75 14.7993L14.75 10.7993" stroke="currentColor" stroke-width="1.5" stroke-linecap="round" stroke-linejoin="round"/>
</svg>
