<svg width="24" height="25" viewBox="0 0 24 25" fill="none" xmlns="http://www.w3.org/2000/svg">
<path d="M8.67188 15.1292C8.67188 16.4192 9.66188 17.4592 10.8919 17.4592H13.4019C14.4719 17.4592 15.3419 16.5492 15.3419 15.4292C15.3419 14.2092 14.8119 13.7792 14.0219 13.4992L9.99187 12.0992C9.20187 11.8192 8.67188 11.3892 8.67188 10.1692C8.67188 9.04916 9.54187 8.13916 10.6119 8.13916H13.1219C14.3519 8.13916 15.3419 9.17916 15.3419 10.4692" stroke="currentColor" stroke-width="1.5" stroke-linecap="round" stroke-linejoin="round"/>
<path d="M12 6.79932V18.7993" stroke="currentColor" stroke-width="1.5" stroke-linecap="round" stroke-linejoin="round"/>
<path d="M12 22.7993C17.5228 22.7993 22 18.3222 22 12.7993C22 7.27647 17.5228 2.79932 12 2.79932C6.47715 2.79932 2 7.27647 2 12.7993C2 18.3222 6.47715 22.7993 12 22.7993Z" fill="currentColor" fill-opacity="0.4"/>
<path d="M12 23.1743C17.73 23.1743 22.375 18.5293 22.375 12.7993C22.375 7.06936 17.73 2.42432 12 2.42432C6.27005 2.42432 1.625 7.06936 1.625 12.7993C1.625 18.5293 6.27005 23.1743 12 23.1743Z" stroke="currentColor" stroke-opacity="0.4" stroke-width="0.75" stroke-linecap="round" stroke-linejoin="round"/>
</svg>
