<svg width="24" height="25" viewBox="0 0 24 25" fill="none" xmlns="http://www.w3.org/2000/svg">
<g opacity="0.4">
<path d="M13.8047 6.61382C14.3351 6.61459 14.8435 6.82605 15.218 7.20167L17.6675 9.65833C18.042 10.034 18.252 10.543 18.2512 11.0734L18.2462 14.5426C18.2454 15.073 18.0339 15.5814 17.6583 15.9559L15.2016 18.4054C14.826 18.7799 14.317 18.9899 13.7866 18.9891L10.3174 18.984C9.78698 18.9833 9.27858 18.7718 8.90406 18.3962L6.45458 15.9395C6.08006 15.5639 5.87009 15.0549 5.87087 14.5244L5.87594 11.0553C5.87672 10.5249 6.08818 10.0165 6.4638 9.64193L8.92046 7.19246C9.29608 6.81793 9.80509 6.60796 10.3355 6.60874L13.8047 6.61382Z" fill="currentColor" fill-opacity="0.4"/>
<path d="M15.4836 6.9369L15.2213 7.19841L15.4836 6.9369C15.0388 6.49085 14.4351 6.23974 13.8052 6.23882L10.3361 6.23374C9.70619 6.23282 9.10173 6.48216 8.65568 6.9269L6.19902 9.37638C5.75297 9.82113 5.50187 10.4248 5.50094 11.0547L5.49587 14.5239C5.49495 15.1538 5.74428 15.7582 6.18903 16.2043L8.63851 18.6609C9.08325 19.107 9.68698 19.3581 10.3169 19.359L13.786 19.3641C14.4159 19.365 15.0204 19.1157 15.4664 18.6709L17.9231 16.2215C18.3691 15.7767 18.6202 15.173 18.6212 14.5431L18.6262 11.0739C18.6272 10.4441 18.3778 9.8396 17.9331 9.39355L15.4836 6.9369Z" stroke="currentColor" stroke-opacity="0.4" stroke-width="0.75"/>
</g>
<path fill-rule="evenodd" clip-rule="evenodd" d="M12.7646 3.11611C12.2746 2.91312 11.724 2.91312 11.2339 3.11611L5.69358 5.41099C5.20352 5.61398 4.81417 6.00333 4.61118 6.49338L2.3163 12.0337C2.11332 12.5238 2.11332 13.0744 2.3163 13.5644L4.61118 19.1048C4.81417 19.5948 5.20352 19.9842 5.69358 20.1872L11.2339 22.4821C11.724 22.685 12.2746 22.685 12.7646 22.4821L18.305 20.1872C18.795 19.9842 19.1844 19.5948 19.3874 19.1048L21.6823 13.5644C21.8852 13.0744 21.8852 12.5238 21.6823 12.0337L19.3874 6.49338C19.1844 6.00333 18.795 5.61398 18.305 5.41099L12.7646 3.11611ZM15.1568 7.20193C14.7822 6.82631 14.2738 6.61485 13.7434 6.61407L10.2743 6.609C9.74382 6.60822 9.23481 6.81819 8.85919 7.19271L6.40253 9.64219C6.02691 10.0167 5.81545 10.5251 5.81468 11.0555L5.8096 14.5247C5.80882 15.0551 6.01879 15.5641 6.39331 15.9398L8.84279 18.3964C9.21731 18.772 9.72571 18.9835 10.2561 18.9843L13.7253 18.9894C14.2557 18.9901 14.7648 18.7802 15.1404 18.4056L17.597 15.9562C17.9727 15.5816 18.1841 15.0732 18.1849 14.5428L18.19 11.0737C18.1907 10.5432 17.9808 10.0342 17.6062 9.65859L15.1568 7.20193Z" fill="currentColor"/>
<path d="M11.2339 3.11611L11.5209 3.80902L11.5209 3.80902L11.2339 3.11611ZM12.7646 3.11611L12.4776 3.80902L12.4776 3.80902L12.7646 3.11611ZM5.69358 5.41099L5.40656 4.71808L5.69358 5.41099ZM4.61118 6.49338L5.30409 6.78039L4.61118 6.49338ZM2.3163 12.0337L3.00921 12.3207L3.00921 12.3207L2.3163 12.0337ZM2.3163 13.5644L3.00921 13.2774V13.2774L2.3163 13.5644ZM4.61118 19.1048L5.30409 18.8178L4.61118 19.1048ZM5.69358 20.1872L5.40656 20.8801L5.40656 20.8801L5.69358 20.1872ZM11.2339 22.4821L11.5209 21.7891L11.5209 21.7891L11.2339 22.4821ZM12.7646 22.4821L12.4776 21.7891L12.4776 21.7891L12.7646 22.4821ZM18.305 20.1872L18.592 20.8801L18.592 20.8801L18.305 20.1872ZM19.3874 19.1048L20.0803 19.3918L20.0803 19.3918L19.3874 19.1048ZM21.6823 13.5644L20.9893 13.2774L20.9893 13.2774L21.6823 13.5644ZM21.6823 12.0337L20.9893 12.3207L20.9893 12.3207L21.6823 12.0337ZM19.3874 6.49338L20.0803 6.20637L20.0803 6.20637L19.3874 6.49338ZM18.305 5.41099L18.018 6.1039L18.305 5.41099ZM13.7434 6.61407L13.7423 7.36407L13.7434 6.61407ZM15.1568 7.20193L14.6257 7.73148V7.73148L15.1568 7.20193ZM10.2743 6.609L10.2754 5.859L10.2743 6.609ZM8.85919 7.19271L9.38874 7.72382H9.38874L8.85919 7.19271ZM6.40253 9.64219L6.93208 10.1733L6.93208 10.1733L6.40253 9.64219ZM5.81468 11.0555L6.56467 11.0566L5.81468 11.0555ZM5.8096 14.5247L5.0596 14.5236L5.8096 14.5247ZM6.39331 15.9398L6.92442 15.4102H6.92442L6.39331 15.9398ZM8.84279 18.3964L9.3739 17.8669L8.84279 18.3964ZM10.2561 18.9843L10.2572 18.2343L10.2561 18.9843ZM13.7253 18.9894L13.7242 19.7394L13.7253 18.9894ZM15.1404 18.4056L14.6108 17.8745L15.1404 18.4056ZM17.597 15.9562L18.1266 16.4873L17.597 15.9562ZM18.1849 14.5428L17.4349 14.5417L18.1849 14.5428ZM18.19 11.0737L18.94 11.0748L18.19 11.0737ZM17.6062 9.65859L18.1374 9.12903V9.12903L17.6062 9.65859ZM11.5209 3.80902C11.8272 3.68215 12.1713 3.68215 12.4776 3.80902L13.0517 2.4232C12.3778 2.14409 11.6207 2.14409 10.9469 2.4232L11.5209 3.80902ZM5.98059 6.1039L11.5209 3.80902L10.9469 2.4232L5.40656 4.71808L5.98059 6.1039ZM5.30409 6.78039C5.43096 6.47411 5.6743 6.23077 5.98059 6.1039L5.40656 4.71808C4.73274 4.99719 4.19738 5.53254 3.91828 6.20637L5.30409 6.78039ZM3.00921 12.3207L5.30409 6.78039L3.91828 6.20637L1.62339 11.7467L3.00921 12.3207ZM3.00921 13.2774C2.88235 12.9712 2.88235 12.627 3.00921 12.3207L1.62339 11.7467C1.34429 12.4205 1.34429 13.1776 1.62339 13.8515L3.00921 13.2774ZM5.30409 18.8178L3.00921 13.2774L1.62339 13.8515L3.91828 19.3918L5.30409 18.8178ZM5.98059 19.4943C5.6743 19.3674 5.43096 19.1241 5.30409 18.8178L3.91827 19.3918C4.19738 20.0656 4.73274 20.601 5.40656 20.8801L5.98059 19.4943ZM11.5209 21.7891L5.98059 19.4943L5.40656 20.8801L10.9469 23.175L11.5209 21.7891ZM12.4776 21.7891C12.1713 21.916 11.8272 21.916 11.5209 21.7891L10.9469 23.175C11.6207 23.4541 12.3778 23.4541 13.0517 23.175L12.4776 21.7891ZM18.018 19.4943L12.4776 21.7891L13.0517 23.175L18.592 20.8801L18.018 19.4943ZM18.6945 18.8178C18.5676 19.1241 18.3243 19.3674 18.018 19.4943L18.592 20.8801C19.2658 20.601 19.8012 20.0656 20.0803 19.3918L18.6945 18.8178ZM20.9893 13.2774L18.6945 18.8178L20.0803 19.3918L22.3752 13.8515L20.9893 13.2774ZM20.9893 12.3207C21.1162 12.627 21.1162 12.9712 20.9893 13.2774L22.3752 13.8515C22.6543 13.1776 22.6543 12.4205 22.3752 11.7467L20.9893 12.3207ZM18.6945 6.78039L20.9893 12.3207L22.3752 11.7467L20.0803 6.20637L18.6945 6.78039ZM18.018 6.1039C18.3243 6.23077 18.5676 6.47411 18.6945 6.7804L20.0803 6.20637C19.8012 5.53254 19.2658 4.99719 18.592 4.71808L18.018 6.1039ZM12.4776 3.80902L18.018 6.1039L18.592 4.71808L13.0517 2.4232L12.4776 3.80902ZM13.7423 7.36407C14.0738 7.36456 14.3916 7.49672 14.6257 7.73148L15.6879 6.67238C15.1729 6.1559 14.4739 5.86514 13.7445 5.86407L13.7423 7.36407ZM10.2732 7.35899L13.7423 7.36407L13.7445 5.86407L10.2754 5.859L10.2732 7.35899ZM9.38874 7.72382C9.6235 7.48974 9.94164 7.35851 10.2732 7.35899L10.2754 5.859C9.54601 5.85793 8.84611 6.14664 8.32963 6.66161L9.38874 7.72382ZM6.93208 10.1733L9.38874 7.72382L8.32963 6.66161L5.87298 9.11108L6.93208 10.1733ZM6.56467 11.0566C6.56516 10.7251 6.69732 10.4074 6.93208 10.1733L5.87298 9.11108C5.3565 9.62605 5.06574 10.3251 5.06468 11.0544L6.56467 11.0566ZM6.5596 14.5258L6.56467 11.0566L5.06468 11.0544L5.0596 14.5236L6.5596 14.5258ZM6.92442 15.4102C6.69034 15.1755 6.55911 14.8573 6.5596 14.5258L5.0596 14.5236C5.05853 15.2529 5.34724 15.9528 5.86221 16.4693L6.92442 15.4102ZM9.3739 17.8669L6.92442 15.4102L5.86221 16.4693L8.31168 18.926L9.3739 17.8669ZM10.2572 18.2343C9.92572 18.2338 9.60797 18.1016 9.3739 17.8669L8.31168 18.926C8.82665 19.4425 9.5257 19.7332 10.255 19.7343L10.2572 18.2343ZM13.7264 18.2394L10.2572 18.2343L10.255 19.7343L13.7242 19.7394L13.7264 18.2394ZM14.6108 17.8745C14.3761 18.1086 14.0579 18.2398 13.7264 18.2394L13.7242 19.7394C14.4536 19.7404 15.1534 19.4517 15.6699 18.9368L14.6108 17.8745ZM17.0675 15.4251L14.6108 17.8745L15.6699 18.9368L18.1266 16.4873L17.0675 15.4251ZM17.4349 14.5417C17.4344 14.8732 17.3022 15.191 17.0675 15.4251L18.1266 16.4873C18.6431 15.9723 18.9338 15.2733 18.9349 14.5439L17.4349 14.5417ZM17.44 11.0726L17.4349 14.5417L18.9349 14.5439L18.94 11.0748L17.44 11.0726ZM17.0751 10.1881C17.3092 10.4229 17.4404 10.741 17.44 11.0726L18.94 11.0748C18.941 10.3454 18.6523 9.64551 18.1374 9.12903L17.0751 10.1881ZM14.6257 7.73148L17.0751 10.1881L18.1374 9.12903L15.6879 6.67238L14.6257 7.73148Z" fill="currentColor"/>
</svg>
