<svg width="24" height="25" viewBox="0 0 24 25" fill="none" xmlns="http://www.w3.org/2000/svg">
<path d="M10.1309 15.8092L9.10094 14.7792L10.0909 13.7892C10.3809 13.4992 10.3809 13.0192 10.0909 12.7292C9.80094 12.4392 9.32094 12.4392 9.03094 12.7292L8.04094 13.7192L7.08094 12.7592C6.79094 12.4692 6.31094 12.4692 6.02094 12.7592C5.73094 13.0492 5.73094 13.5292 6.02094 13.8192L6.98094 14.7792L5.99094 15.7692C5.70094 16.0592 5.70094 16.5392 5.99094 16.8292C6.14094 16.9792 6.33094 17.0492 6.52094 17.0492C6.71094 17.0492 6.90094 16.9792 7.05094 16.8292L8.04094 15.8392L9.07094 16.8692C9.22094 17.0192 9.41094 17.0892 9.60094 17.0892C9.79094 17.0892 9.98094 17.0192 10.1309 16.8692C10.4209 16.5792 10.4209 16.0992 10.1309 15.8092Z" fill="currentColor"/>
<path d="M13.5393 15.7993C12.9893 15.7993 12.5293 15.3493 12.5293 14.7993C12.5293 14.2493 12.9693 13.7993 13.5193 13.7993H13.5393C14.0893 13.7993 14.5393 14.2493 14.5393 14.7993C14.5393 15.3493 14.0993 15.7993 13.5393 15.7993Z" fill="currentColor"/>
<path d="M17.4807 15.7993C16.9307 15.7993 16.4707 15.3493 16.4707 14.7993C16.4707 14.2493 16.9107 13.7993 17.4607 13.7993H17.4807C18.0307 13.7993 18.4807 14.2493 18.4807 14.7993C18.4807 15.3493 18.0407 15.7993 17.4807 15.7993Z" fill="currentColor"/>
<path d="M15.5 17.7693C14.95 17.7693 14.5 17.3293 14.5 16.7793V16.7593C14.5 16.2093 14.95 15.7593 15.5 15.7593C16.05 15.7593 16.5 16.2093 16.5 16.7593C16.5 17.3093 16.06 17.7693 15.5 17.7693Z" fill="currentColor"/>
<path d="M15.5 13.8293C14.95 13.8293 14.5 13.3893 14.5 12.8393V12.8193C14.5 12.2693 14.95 11.8193 15.5 11.8193C16.05 11.8193 16.5 12.2693 16.5 12.8193C16.5 13.3693 16.06 13.8293 15.5 13.8293Z" fill="currentColor"/>
<path opacity="0.4" d="M22 11.8695V17.4495C22 20.3995 19.6 22.7995 16.65 22.7995H7.35C4.4 22.7995 2 20.3995 2 17.4495V11.8695C2 8.91953 4.4 6.51953 7.35 6.51953H16.65C19.6 6.51953 22 8.91953 22 11.8695Z" fill="currentColor"/>
<path d="M13.6394 3.50932L13.6294 4.44932C13.6194 5.32932 12.8894 6.05932 11.9994 6.05932C11.8494 6.05932 11.7594 6.15932 11.7594 6.28932C11.7594 6.41932 11.8594 6.51932 11.9894 6.51932H10.3794C10.3694 6.44932 10.3594 6.36932 10.3594 6.28932C10.3594 5.38932 11.0894 4.65932 11.9794 4.65932C12.1294 4.65932 12.2294 4.55932 12.2294 4.42932L12.2394 3.48932C12.2494 3.10932 12.5594 2.79932 12.9394 2.79932H12.9494C13.3394 2.79932 13.6394 3.11932 13.6394 3.50932Z" fill="currentColor"/>
</svg>
