<svg width="24" height="24" viewBox="0 0 24 24" fill="none" xmlns="http://www.w3.org/2000/svg">
<rect width="20" height="20" transform="translate(2 2)" fill="white"/>
<path d="M9 22H15C20 22 22 20 22 15V9C22 4 20 2 15 2H9C4 2 2 4 2 9V15C2 20 4 22 9 22Z" fill="currentColor" fill-opacity="0.4"/>
<path d="M9 22.375H15C17.537 22.375 19.4104 21.8699 20.6402 20.6402C21.8699 19.4104 22.375 17.537 22.375 15V9C22.375 6.46301 21.8699 4.58957 20.6402 3.35983C19.4104 2.1301 17.537 1.625 15 1.625H9C6.46301 1.625 4.58957 2.1301 3.35983 3.35983C2.1301 4.58957 1.625 6.46301 1.625 9V15C1.625 17.537 2.1301 19.4104 3.35983 20.6402C4.58957 21.8699 6.46301 22.375 9 22.375Z" stroke="currentColor" stroke-opacity="0.4" stroke-width="0.75" stroke-linecap="round" stroke-linejoin="round"/>
<g opacity="0.6">
<path d="M9.08852 12.9876L9.08203 17.7843C9.08203 18.3692 9.49151 18.6552 9.99847 18.4147L11.7403 17.5893C11.8833 17.5178 12.1238 17.5178 12.2668 17.5893L14.0152 18.4147C14.5157 18.6487 14.9316 18.3692 14.9316 17.7843V12.8706" fill="currentColor"/>
<path d="M9.08852 12.9876L9.08203 17.7843C9.08203 18.3692 9.49151 18.6552 9.99847 18.4147L11.7403 17.5893C11.8833 17.5178 12.1238 17.5178 12.2668 17.5893L14.0152 18.4147C14.5157 18.6487 14.9316 18.3692 14.9316 17.7843V12.8706" stroke="currentColor" stroke-width="1.5" stroke-linecap="round" stroke-linejoin="round"/>
</g>
<path d="M12.0005 13.9494C14.4235 13.9494 16.3877 12.058 16.3877 9.72471C16.3877 7.39147 14.4235 5.5 12.0005 5.5C9.5775 5.5 7.61328 7.39147 7.61328 9.72471C7.61328 12.058 9.5775 13.9494 12.0005 13.9494Z" fill="currentColor" stroke="currentColor" stroke-width="1.5" stroke-linecap="round" stroke-linejoin="round"/>
</svg>
