<svg width="24" height="24" viewBox="0 0 24 24" fill="none" xmlns="http://www.w3.org/2000/svg">
<path d="M9 22H15C20 22 22 20 22 15V9C22 4 20 2 15 2H9C4 2 2 4 2 9V15C2 20 4 22 9 22Z" fill="currentColor" fill-opacity="0.4"/>
<path d="M9 22.375H15C17.537 22.375 19.4104 21.8699 20.6402 20.6402C21.8699 19.4104 22.375 17.537 22.375 15V9C22.375 6.46301 21.8699 4.58957 20.6402 3.35983C19.4104 2.1301 17.537 1.625 15 1.625H9C6.46301 1.625 4.58957 2.1301 3.35983 3.35983C2.1301 4.58957 1.625 6.46301 1.625 9V15C1.625 17.537 2.1301 19.4104 3.35983 20.6402C4.58957 21.8699 6.46301 22.375 9 22.375Z" stroke="currentColor" stroke-opacity="0.4" stroke-width="0.75" stroke-linecap="round" stroke-linejoin="round"/>
<path opacity="0.4" d="M17.877 8.87351L12.001 12.273L6.125 8.87351C6.385 8.39251 6.762 7.97001 7.1845 7.73601L10.6555 5.812C11.3965 5.396 12.6055 5.396 13.3465 5.812L16.8175 7.73601C17.24 7.97001 17.617 8.39251 17.877 8.87351Z" fill="currentColor"/>
<path opacity="0.6" d="M12.0004 12.273V18.5001C11.5129 18.5001 11.0254 18.3961 10.6549 18.1881L7.18391 16.2641C6.39741 15.8286 5.75391 14.7366 5.75391 13.8395V10.1605C5.75391 9.74454 5.89691 9.28954 6.12441 8.87354L12.0004 12.273Z" fill="currentColor"/>
<path d="M18.2465 10.1605V13.8395C18.2465 14.7366 17.603 15.8286 16.8165 16.2641L13.3455 18.1881C12.975 18.3961 12.4875 18.5001 12 18.5001V12.273L17.876 8.87354C18.1035 9.28954 18.2465 9.74454 18.2465 10.1605Z" fill="currentColor"/>
</svg>
