<svg width="24" height="25" viewBox="0 0 24 25" fill="none" xmlns="http://www.w3.org/2000/svg">
<path opacity="0.4" d="M21.0409 7.98932L12.0009 13.2193L2.96094 7.98932C3.36094 7.24932 3.94094 6.59932 4.59094 6.23932L9.93094 3.27932C11.0709 2.63932 12.9309 2.63932 14.0709 3.27932L19.4109 6.23932C20.0609 6.59932 20.6409 7.24932 21.0409 7.98932Z" fill="currentColor"/>
<path opacity="0.6" d="M12.0006 13.2193V22.7993C11.2506 22.7993 10.5006 22.6393 9.93062 22.3193L4.59063 19.3593C3.38063 18.6893 2.39062 17.0093 2.39062 15.6293V9.96926C2.39062 9.32926 2.61062 8.62926 2.96062 7.98926L12.0006 13.2193Z" fill="currentColor"/>
<path d="M21.61 9.96926V15.6293C21.61 17.0093 20.62 18.6893 19.41 19.3593L14.07 22.3193C13.5 22.6393 12.75 22.7993 12 22.7993V13.2193L21.04 7.98926C21.39 8.62926 21.61 9.32926 21.61 9.96926Z" fill="currentColor"/>
</svg>
