<svg width="24" height="25" viewBox="0 0 24 25" fill="none" xmlns="http://www.w3.org/2000/svg">
<path opacity="0.4" d="M10.3687 10.0132C8.79187 10.7697 7.70312 12.3811 7.70312 14.2469C7.70312 16.1126 8.79187 17.7241 10.3687 18.4806V22.7996H14.4236V18.4806C16.0004 17.7241 17.0892 16.1126 17.0892 14.2469C17.0892 12.3811 16.0004 10.7697 14.4236 10.0132V13.3952L13.572 14.2469H11.2203L10.3687 13.3952V10.0132Z" fill="currentColor" stroke="currentColor" stroke-width="1.5" stroke-linecap="round" stroke-linejoin="round"/>
<path d="M21.1698 12.5768C21.1698 8.39724 18.0351 4.96402 13.9941 4.46289" stroke="currentColor" stroke-width="1.5" stroke-linecap="round" stroke-linejoin="round"/>
<path d="M10.7965 4.46289C6.73415 4.94269 3.57812 8.38658 3.57812 12.5768" stroke="currentColor" stroke-width="1.5" stroke-linecap="round" stroke-linejoin="round"/>
<path d="M21.6832 15.7754H20.617C20.0306 15.7754 19.5508 15.2956 19.5508 14.7092V13.6429C19.5508 13.0565 20.0306 12.5767 20.617 12.5767H21.6832C22.2697 12.5767 22.7495 13.0565 22.7495 13.6429V14.7092C22.7495 15.2956 22.2697 15.7754 21.6832 15.7754Z" fill="currentColor" stroke="currentColor" stroke-width="1.5" stroke-linecap="round" stroke-linejoin="round"/>
<path d="M3.06622 15.7754H4.13245C4.71887 15.7754 5.19867 15.2956 5.19867 14.7092V13.6429C5.19867 13.0565 4.71887 12.5767 4.13245 12.5767H3.06622C2.4798 12.5767 2 13.0565 2 13.6429V14.7092C2 15.2956 2.4798 15.7754 3.06622 15.7754Z" fill="currentColor" stroke="currentColor" stroke-width="1.5" stroke-linecap="round" stroke-linejoin="round"/>
<path d="M12.9293 5.99799H11.8631C11.2767 5.99799 10.7969 5.51819 10.7969 4.93176V3.86554C10.7969 3.27912 11.2767 2.79932 11.8631 2.79932H12.9293C13.5157 2.79932 13.9955 3.27912 13.9955 3.86554V4.93176C13.9955 5.51819 13.5157 5.99799 12.9293 5.99799Z" fill="currentColor" stroke="currentColor" stroke-width="1.5" stroke-linecap="round" stroke-linejoin="round"/>
</svg>
