<svg width="24" height="24" viewBox="0 0 24 24" fill="none" xmlns="http://www.w3.org/2000/svg">
<path d="M17.8011 19.7301C18.8611 19.7301 19.7311 18.8602 19.7311 17.8002V16.1001C19.7311 15.7001 19.9411 15.1401 20.2011 14.8401L21.5611 13.2601C22.1511 12.5601 22.1511 11.4301 21.5611 10.7401L20.2011 9.16015C19.9411 8.86015 19.7311 8.29014 19.7311 7.90014V6.20007C19.7311 5.14007 18.8611 4.27014 17.8011 4.27014H16.1011C15.7011 4.27014 15.1411 4.06017 14.8411 3.80017L13.2611 2.44006C12.5611 1.85006 11.4311 1.85006 10.7411 2.44006L9.1611 3.80017M14.8411 20.2001L13.2611 21.5601C12.5711 22.1501 11.4411 22.1501 10.7411 21.5601L9.1611 20.2001C8.8611 19.9401 8.30109 19.7301 7.90109 19.7301H6.17108C5.11108 19.7301 4.24109 18.8602 4.24109 17.8002V16.0901C4.24109 15.7001 4.0311 15.1401 3.7811 14.8401L2.43109 13.2501C1.85109 12.5601 1.85109 11.4401 2.43109 10.7501L3.7811 9.16015C4.0311 8.86015 4.24109 8.30015 4.24109 7.91015V6.20007C4.24109 5.14007 5.11108 4.27014 6.17108 4.27014" stroke="currentColor" stroke-width="1.5" stroke-linecap="round" stroke-linejoin="round"/>
<path d="M9.25 12.5L10.75 14L14.75 10" stroke="currentColor" stroke-width="1.5" stroke-linecap="round" stroke-linejoin="round"/>
</svg>
