<svg width="24" height="25" viewBox="0 0 24 25" fill="none" xmlns="http://www.w3.org/2000/svg">
<path d="M8.66992 14.9548C8.66992 16.2448 9.65992 17.2848 10.8899 17.2848H13.3999C14.4699 17.2848 15.3399 16.3748 15.3399 15.2548C15.3399 14.0348 14.8099 13.6048 14.0199 13.3248L9.98992 11.9248C9.19992 11.6448 8.66992 11.2148 8.66992 9.99484C8.66992 8.87484 9.53992 7.96484 10.6099 7.96484H13.1199C14.3499 7.96484 15.3399 9.00484 15.3399 10.2948" stroke="currentColor" stroke-width="1.5" stroke-linecap="round" stroke-linejoin="round"/>
<path d="M12 6.625V18.625" stroke="currentColor" stroke-width="1.5" stroke-linecap="round" stroke-linejoin="round"/>
<path d="M4 6.625C2.75 8.295 2 10.375 2 12.625C2 18.145 6.48 22.625 12 22.625C17.52 22.625 22 18.145 22 12.625C22 7.105 17.52 2.625 12 2.625C10.57 2.625 9.2 2.925 7.97 3.475" stroke="currentColor" stroke-width="1.5" stroke-linecap="round" stroke-linejoin="round"/>
</svg>
