<svg width="24" height="25" viewBox="0 0 24 25" fill="none" xmlns="http://www.w3.org/2000/svg">
<path d="M4.1967 7.3217L4.61191 6.3193C4.81489 5.82924 5.20424 5.43989 5.6943 5.23691L11.2346 2.94203C11.7247 2.73904 12.2753 2.73904 12.7654 2.94203L18.3057 5.23691C18.7958 5.43989 19.1851 5.82924 19.3881 6.3193L21.683 11.8596C21.886 12.3497 21.886 12.9003 21.683 13.3904L21.2678 14.3928M19.8033 17.9283L19.3881 18.9307C19.1851 19.4208 18.7958 19.8101 18.3057 20.0131L12.7654 22.308C12.2753 22.511 11.7247 22.511 11.2346 22.308L5.6943 20.0131C5.20424 19.8101 4.81489 19.4208 4.61191 18.9307L2.31703 13.3904C2.11404 12.9003 2.11404 12.3497 2.31703 11.8596L2.73223 10.8572" stroke="currentColor" stroke-width="1.5" stroke-linecap="round"/>
<path d="M13.7441 6.43999C14.2746 6.44077 14.783 6.65222 15.1575 7.02785L17.607 9.4845C17.9815 9.86012 18.1915 10.3691 18.1907 10.8996L18.1856 14.3687C18.1848 14.8992 17.9734 15.4076 17.5978 15.7821L15.1411 18.2316C14.7655 18.6061 14.2565 18.8161 13.726 18.8153L10.2569 18.8102C9.72643 18.8094 9.21804 18.598 8.84351 18.2223L6.39404 15.7657C6.01951 15.3901 5.80954 14.8811 5.81032 14.3506L5.8154 10.8815C5.81617 10.351 6.02763 9.84263 6.40325 9.4681L8.85991 7.01863C9.23553 6.6441 9.74455 6.43414 10.275 6.43491L13.7441 6.43999Z" stroke="currentColor" stroke-width="1.5"/>
</svg>
