<svg width="24" height="24" viewBox="0 0 24 24" fill="none" xmlns="http://www.w3.org/2000/svg">
<path d="M9 22C4 22 2 20 2 15M15 22C20 22 22 20 22 15M22 9C22 4 20 2 15 2M9 2C4 2 2 4 2 9" stroke="currentColor" stroke-width="1.5" stroke-linecap="round" stroke-linejoin="round"/>
<path d="M15.7689 17.0216C16.4575 17.0216 17.0227 16.4565 17.0227 15.7679V14.6635C17.0227 14.4037 17.1591 14.0399 17.328 13.845L18.2115 12.8187C18.5947 12.3639 18.5947 11.6299 18.2115 11.1816L17.328 10.1553C17.1591 9.96041 17.0227 9.59013 17.0227 9.33678V8.23241C17.0227 7.54383 16.4575 6.97872 15.7689 6.97872H14.6646C14.4048 6.97872 14.041 6.84232 13.8461 6.67342L12.8197 5.78989C12.365 5.40662 11.631 5.40662 11.1827 5.78989L10.6696 6.23166M8.21404 6.97872C7.52546 6.97872 6.96031 7.54383 6.96031 8.23241V9.34329C6.96031 9.59663 6.8239 9.96041 6.6615 10.1553L5.78453 11.1881C5.40776 11.6364 5.40776 12.3639 5.78453 12.8121L6.6615 13.845C6.8239 14.0399 6.96031 14.4037 6.96031 14.657V15.7679C6.96031 16.4565 7.52546 17.0216 8.21404 17.0216H9.33787C9.59771 17.0216 9.96149 17.158 10.1564 17.3269L11.1827 18.2103C11.6375 18.5936 12.3715 18.5936 12.8197 18.2103L13.3329 17.7686" stroke="currentColor" stroke-width="1.5" stroke-linecap="round" stroke-linejoin="round"/>
<path d="M10.2148 12.3252L11.1892 13.2996L13.7877 10.7012" stroke="currentColor" stroke-width="1.5" stroke-linecap="round" stroke-linejoin="round"/>
</svg>
