<svg width="25" height="25" viewBox="0 0 25 25" fill="none" xmlns="http://www.w3.org/2000/svg">
<path d="M10.0695 13.085L7.01953 16.135" stroke="currentColor" stroke-width="1.5" stroke-miterlimit="10" stroke-linecap="round" stroke-linejoin="round"/>
<path d="M7.05078 13.1152L10.1008 16.1652" stroke="currentColor" stroke-width="1.5" stroke-miterlimit="10" stroke-linecap="round" stroke-linejoin="round"/>
<path d="M14.0293 14.625H14.0393" stroke="currentColor" stroke-width="2" stroke-miterlimit="10" stroke-linecap="round" stroke-linejoin="round"/>
<path d="M17.9707 14.625H17.9807" stroke="currentColor" stroke-width="2" stroke-miterlimit="10" stroke-linecap="round" stroke-linejoin="round"/>
<path d="M16 16.605V16.585" stroke="currentColor" stroke-width="2" stroke-miterlimit="10" stroke-linecap="round" stroke-linejoin="round"/>
<path d="M16 12.665V12.645" stroke="currentColor" stroke-width="2" stroke-miterlimit="10" stroke-linecap="round" stroke-linejoin="round"/>
<path d="M2.5 15.625C2.5 20.625 4.5 22.625 9.5 22.625H15.5C20.5 22.625 22.5 20.625 22.5 15.625V13.625C22.5 8.625 20.5 6.625 15.5 6.625H9.5C5.75 6.625 3.69 7.745 2.89 10.425" stroke="currentColor" stroke-width="1.5" stroke-linecap="round" stroke-linejoin="round"/>
<path d="M13.5105 2.625L13.5005 3.635C13.4905 4.185 13.0505 4.625 12.5005 4.625H12.4705C11.9205 4.625 11.4805 5.075 11.4805 5.625C11.4805 6.175 11.9305 6.625 12.4805 6.625H13.4805" stroke="currentColor" stroke-width="1.5" stroke-linecap="round" stroke-linejoin="round"/>
</svg>
