<svg width="24" height="24" viewBox="0 0 24 24" fill="none" xmlns="http://www.w3.org/2000/svg">
<path d="M2 9C2 4 4 2 9 2H15C20 2 22 4 22 9V15C22 20 20 22 15 22H9C4 22 2 20 2 15" stroke="currentColor" stroke-width="1.5" stroke-linecap="round" stroke-linejoin="round"/>
<path d="M9.09436 12.9854L9.08789 17.7713C9.08789 18.355 9.49645 18.6403 10.0023 18.4004L11.7403 17.5768C11.8829 17.5055 12.1229 17.5055 12.2656 17.5768L14.01 18.4004C14.5094 18.6338 14.9244 18.355 14.9244 17.7713V12.8687" stroke="currentColor" stroke-width="1.5" stroke-linecap="round" stroke-linejoin="round"/>
<path d="M14.9187 6.59117C15.8136 7.36288 16.3778 8.48479 16.3778 9.72992C16.3778 12.058 14.4194 13.9452 12.0004 13.9452C9.58153 13.9452 7.62305 12.058 7.62305 9.72992C7.62305 7.40179 9.58153 5.51465 12.0004 5.51465" stroke="currentColor" stroke-width="1.5" stroke-linecap="round" stroke-linejoin="round"/>
</svg>
