<svg width="24" height="24" viewBox="0 0 24 24" fill="none" xmlns="http://www.w3.org/2000/svg">
<path d="M2 9C2 4 4 2 9 2H15C20 2 22 4 22 9V15C22 20 20 22 15 22H9C4 22 2 20 2 15" stroke="currentColor" stroke-width="1.5" stroke-linecap="round" stroke-linejoin="round"/>
<path d="M6.70117 9.25977L12.0012 12.3298L17.2612 9.27976" stroke="currentColor" stroke-width="1.5" stroke-linecap="round" stroke-linejoin="round"/>
<path d="M12.002 17.7698V12.3198" stroke="currentColor" stroke-width="1.5" stroke-linecap="round" stroke-linejoin="round"/>
<path d="M6.24023 10.3099C6.24023 9.47985 6.84024 8.46986 7.56024 8.06986L10.7603 6.28986C11.4403 5.89986 12.5602 5.89985 13.2502 6.27985L16.4503 8.05985C17.1803 8.45985 17.7702 9.46986 17.7702 10.2999V13.6999C17.7702 14.5299 17.1703 15.5399 16.4503 15.9399L13.2502 17.7199C12.5602 18.0999 11.4403 18.0999 10.7603 17.7199L7.56024 15.9399C6.83024 15.5399 6.24023 14.5299 6.24023 13.6999V12.8524" stroke="currentColor" stroke-width="1.5" stroke-linecap="round" stroke-linejoin="round"/>
</svg>
