<svg width="24" height="25" viewBox="0 0 24 25" fill="none" xmlns="http://www.w3.org/2000/svg">
<path d="M8.16602 21.9751C9.32602 22.5651 10.646 22.8951 12.036 22.8951C13.376 22.8951 14.636 22.5951 15.766 22.0451" stroke="currentColor" stroke-width="1.5" stroke-linecap="round" stroke-linejoin="round"/>
<path d="M3.46484 13.4054C3.72484 10.8654 5.08484 8.65537 7.06484 7.25537" stroke="currentColor" stroke-width="1.5" stroke-linecap="round" stroke-linejoin="round"/>
<path d="M16.9355 7.20508C18.9355 8.59508 20.3155 10.8051 20.5955 13.3551" stroke="currentColor" stroke-width="1.5" stroke-linecap="round" stroke-linejoin="round"/>
<path d="M13.9743 4.93878L14.4589 5.01873C15.0785 5.11865 15.2184 5.56833 14.7787 6.00801L14.0292 6.75747C13.8993 6.88738 13.8294 7.1272 13.8693 7.30707L14.0792 8.2364C14.2491 8.97587 13.8594 9.25567 13.2098 8.87594L12.3005 8.33633C12.1406 8.2364 11.8708 8.2364 11.7009 8.33633L10.7916 8.87594C10.142 9.25567 9.75232 8.97587 9.9222 8.2364L10.132 7.30707C10.172 7.1272 10.1021 6.88738 9.97216 6.75747L9.2227 6.00801C8.78302 5.56833 8.92292 5.11865 9.54247 5.01873L10.5118 4.85884C10.6717 4.82886 10.8615 4.68896 10.9415 4.53907L11.4711 3.46984C11.7709 2.89026 12.2405 2.89026 12.5303 3.46984L12.6627 3.73715" stroke="currentColor" stroke-width="1.0949" stroke-linecap="round" stroke-linejoin="round"/>
<path d="M6.00552 17.4744L6.49017 17.5544C7.10972 17.6543 7.24962 18.104 6.80994 18.5437L6.06048 19.2931C5.93058 19.423 5.86063 19.6628 5.9006 19.8427L6.11045 20.772C6.28032 21.5115 5.8906 21.7913 5.24107 21.4116L4.33173 20.872C4.17184 20.772 3.90204 20.772 3.73216 20.872L2.82282 21.4116C2.17329 21.7913 1.78357 21.5115 1.95345 20.772L2.16329 19.8427C2.20327 19.6628 2.13332 19.423 2.00341 19.2931L1.25395 18.5437C0.814268 18.104 0.954167 17.6543 1.57372 17.5544L2.54302 17.3945C2.70291 17.3645 2.89277 17.2246 2.97271 17.0747L3.50233 16.0055C3.80211 15.4259 4.27177 15.4259 4.56156 16.0055L4.69397 16.2728" stroke="currentColor" stroke-width="1.0949" stroke-linecap="round" stroke-linejoin="round"/>
<path d="M21.943 17.4744L22.4277 17.5544C23.0472 17.6543 23.1871 18.104 22.7474 18.5437L21.998 19.2931C21.8681 19.423 21.7981 19.6628 21.8381 19.8427L22.0479 20.772C22.2178 21.5115 21.8281 21.7913 21.1786 21.4116L20.2692 20.872C20.1093 20.772 19.8395 20.772 19.6697 20.872L18.7603 21.4116C18.1108 21.7913 17.7211 21.5115 17.8909 20.772L18.1008 19.8427C18.1408 19.6628 18.0708 19.423 17.9409 19.2931L17.1915 18.5437C16.7518 18.104 16.8917 17.6543 17.5112 17.5544L18.4805 17.3945C18.6404 17.3645 18.8303 17.2246 18.9102 17.0747L19.4398 16.0055C19.7396 15.4259 20.2093 15.4259 20.4991 16.0055L20.6315 16.2728" stroke="currentColor" stroke-width="1.0949" stroke-linecap="round" stroke-linejoin="round"/>
</svg>
