<svg width="24" height="25" viewBox="0 0 24 25" fill="none" xmlns="http://www.w3.org/2000/svg">
<path d="M10.3941 22.0642V17.7452C8.81726 16.9887 7.72852 15.3773 7.72852 13.5115C7.72852 11.6458 8.81726 10.0343 10.3941 9.27783V12.6599L11.2457 13.5115H13.5974L14.449 12.6599V9.27783C15.5064 9.78511 16.3443 10.6768 16.7816 11.7719M14.449 22.0642V17.7452C15.8263 17.0845 16.8312 15.7715 17.0635 14.2065" stroke="currentColor" stroke-width="1.5" stroke-linecap="round" stroke-linejoin="round"/>
<path d="M12.9293 5.28363H11.8631C11.2767 5.28363 10.7969 4.80383 10.7969 4.21741V3.15118C10.7969 2.56476 11.2767 2.08496 11.8631 2.08496H12.9293C13.5157 2.08496 13.9955 2.56476 13.9955 3.15118V4.21741C13.9955 4.80383 13.5157 5.28363 12.9293 5.28363Z" stroke="currentColor" stroke-width="1.5" stroke-linecap="round" stroke-linejoin="round"/>
<path d="M3.06622 15.061H4.13245C4.71887 15.061 5.19867 14.5812 5.19867 13.9948V12.9286C5.19867 12.3422 4.71887 11.8623 4.13245 11.8623H3.06622C2.4798 11.8623 2 12.3422 2 12.9286V13.9948C2 14.5812 2.4798 15.061 3.06622 15.061Z" stroke="currentColor" stroke-width="1.5" stroke-linecap="round" stroke-linejoin="round"/>
<path d="M21.6832 15.061H20.617C20.0306 15.061 19.5508 14.5812 19.5508 13.9948V12.9286C19.5508 12.3422 20.0306 11.8623 20.617 11.8623H21.6832C22.2697 11.8623 22.7495 12.3422 22.7495 12.9286V13.9948C22.7495 14.5812 22.2697 15.061 21.6832 15.061Z" stroke="currentColor" stroke-width="1.5" stroke-linecap="round" stroke-linejoin="round"/>
<path d="M10.7965 3.74902C6.73415 4.22882 3.57812 7.67271 3.57812 11.863" stroke="currentColor" stroke-width="1.5" stroke-linecap="round" stroke-linejoin="round"/>
<path d="M21.1698 11.863C21.1698 7.68337 18.0351 4.25015 13.9941 3.74902" stroke="currentColor" stroke-width="1.5" stroke-linecap="round" stroke-linejoin="round"/>
</svg>
